<svg width="20" height="20" viewBox="0 0 20 20" fill="none" xmlns="http://www.w3.org/2000/svg">
<path d="M4.20552 0.631623C3.41056 0.542775 2.58943 0.542775 1.79447 0.631623C1.1958 0.698533 0.710654 1.16974 0.639767 1.77582C0.544638 2.58917 0.544638 3.41083 0.639767 4.22418C0.710654 4.83027 1.19581 5.30147 1.79447 5.36838C2.58943 5.45723 3.41056 5.45723 4.20552 5.36838C4.80419 5.30147 5.28934 4.83027 5.36022 4.22418C5.45535 3.41083 5.45535 2.58917 5.36022 1.77582C5.28934 1.16974 4.80419 0.698533 4.20552 0.631623Z" fill="#434343"/>
<path d="M11.2055 0.631623C10.4106 0.542775 9.58942 0.542775 8.79447 0.631623C8.1958 0.698533 7.71065 1.16974 7.63976 1.77582C7.54463 2.58917 7.54463 3.41083 7.63976 4.22418C7.71065 4.83027 8.1958 5.30147 8.79447 5.36838C9.58942 5.45723 10.4106 5.45723 11.2055 5.36838C11.8042 5.30147 12.2893 4.83027 12.3602 4.22418C12.4553 3.41083 12.4553 2.58917 12.3602 1.77582C12.2893 1.16974 11.8042 0.698533 11.2055 0.631623Z" fill="#434343"/>
<path d="M18.2055 0.631623C17.4106 0.542775 16.5894 0.542775 15.7945 0.631623C15.1958 0.698533 14.7106 1.16974 14.6398 1.77582C14.5446 2.58917 14.5446 3.41083 14.6398 4.22418C14.7106 4.83027 15.1958 5.30147 15.7945 5.36838C16.5894 5.45723 17.4106 5.45723 18.2055 5.36838C18.8042 5.30147 19.2893 4.83027 19.3602 4.22418C19.4553 3.41083 19.4553 2.58917 19.3602 1.77582C19.2893 1.16974 18.8042 0.698533 18.2055 0.631623Z" fill="#434343"/>
<path d="M4.20552 7.63162C3.41056 7.54278 2.58943 7.54278 1.79447 7.63162C1.1958 7.69853 0.710654 8.16973 0.639767 8.77582C0.544638 9.58917 0.544638 10.4108 0.639767 11.2242C0.710654 11.8303 1.19581 12.3015 1.79447 12.3684C2.58943 12.4572 3.41056 12.4572 4.20552 12.3684C4.80419 12.3015 5.28934 11.8303 5.36022 11.2242C5.45535 10.4108 5.45535 9.58917 5.36022 8.77582C5.28934 8.16973 4.80419 7.69853 4.20552 7.63162Z" fill="#434343"/>
<path d="M11.2055 7.63162C10.4106 7.54278 9.58942 7.54278 8.79447 7.63162C8.1958 7.69853 7.71065 8.16973 7.63976 8.77582C7.54463 9.58917 7.54463 10.4108 7.63976 11.2242C7.71065 11.8303 8.1958 12.3015 8.79447 12.3684C9.58942 12.4572 10.4106 12.4572 11.2055 12.3684C11.8042 12.3015 12.2893 11.8303 12.3602 11.2242C12.4553 10.4108 12.4553 9.58917 12.3602 8.77582C12.2893 8.16973 11.8042 7.69853 11.2055 7.63162Z" fill="#434343"/>
<path d="M18.2055 7.63162C17.4106 7.54278 16.5894 7.54278 15.7945 7.63162C15.1958 7.69853 14.7106 8.16973 14.6398 8.77582C14.5446 9.58917 14.5446 10.4108 14.6398 11.2242C14.7106 11.8303 15.1958 12.3015 15.7945 12.3684C16.5894 12.4572 17.4106 12.4572 18.2055 12.3684C18.8042 12.3015 19.2893 11.8303 19.3602 11.2242C19.4553 10.4108 19.4553 9.58917 19.3602 8.77582C19.2893 8.16973 18.8042 7.69853 18.2055 7.63162Z" fill="#434343"/>
<path d="M4.20552 14.6316C3.41056 14.5428 2.58943 14.5428 1.79447 14.6316C1.1958 14.6985 0.710654 15.1697 0.639767 15.7758C0.544638 16.5892 0.544638 17.4108 0.639767 18.2242C0.710654 18.8303 1.19581 19.3015 1.79447 19.3684C2.58943 19.4572 3.41056 19.4572 4.20552 19.3684C4.80419 19.3015 5.28934 18.8303 5.36022 18.2242C5.45535 17.4108 5.45535 16.5892 5.36022 15.7758C5.28934 15.1697 4.80419 14.6985 4.20552 14.6316Z" fill="#434343"/>
<path d="M11.2055 14.6316C10.4106 14.5428 9.58942 14.5428 8.79447 14.6316C8.1958 14.6985 7.71065 15.1697 7.63976 15.7758C7.54463 16.5892 7.54463 17.4108 7.63976 18.2242C7.71065 18.8303 8.1958 19.3015 8.79447 19.3684C9.58942 19.4572 10.4106 19.4572 11.2055 19.3684C11.8042 19.3015 12.2893 18.8303 12.3602 18.2242C12.4553 17.4108 12.4553 16.5892 12.3602 15.7758C12.2893 15.1697 11.8042 14.6985 11.2055 14.6316Z" fill="#434343"/>
<path d="M18.2055 14.6316C17.4106 14.5428 16.5894 14.5428 15.7945 14.6316C15.1958 14.6985 14.7106 15.1697 14.6398 15.7758C14.5446 16.5892 14.5446 17.4108 14.6398 18.2242C14.7106 18.8303 15.1958 19.3015 15.7945 19.3684C16.5894 19.4572 17.4106 19.4572 18.2055 19.3684C18.8042 19.3015 19.2893 18.8303 19.3602 18.2242C19.4553 17.4108 19.4553 16.5892 19.3602 15.7758C19.2893 15.1697 18.8042 14.6985 18.2055 14.6316Z" fill="#434343"/>
</svg>
