<svg width="24" height="24" viewBox="0 0 24 24" fill="none" xmlns="http://www.w3.org/2000/svg" data-id="IcUserHomeHouseFill">
    <path d="M21 12V20.5C21 21.3284 20.3284 22 19.5 22H16V17C16 15.8954 15.1046 15 14 15H13V20H15.99V22H8.01V20H11V15H10C8.89543 15 8 15.8954 8 17V22H4.50001C3.67159 22 3.00001 21.3284 3.00001 20.5V12H1.99302C1.29481 12 0.811533 11.3026 1.05669 10.6489L4.05668 2.64888C4.20305 2.25857 4.57617 2 4.99301 2H19.007C19.4239 2 19.797 2.25857 19.9433 2.64888L22.9433 10.6489C23.1885 11.3026 22.7052 12 22.007 12H21Z" fill="#0194f3"></path>
</svg>