<svg width="24" height="24" viewBox="0 0 24 24" fill="none" xmlns="http://www.w3.org/2000/svg" data-id="IcProductDuotoneXperienceFill">
    <path fill-rule="evenodd" clip-rule="evenodd" d="M5.32125 8.49856L9.98962 12.6067L18.1819 2.25858C18.8675 1.39255 20.1254 1.24629 20.9914 1.9319C21.8574 2.61751 22.0037 3.87536 21.3181 4.74139L11.8181 16.7414C11.1071 17.6395 9.78862 17.7581 8.92874 17.0014L2.67874 11.5014C1.84952 10.7717 1.76886 9.50795 2.49857 8.67873C3.22828 7.84952 4.49204 7.76885 5.32125 8.49856ZM4.72017 18.9617L6.81535 16.4737L8.26811 17.7521C8.86424 18.2767 9.60732 18.5208 10.3395 18.4987L7.77982 21.5383C7.06832 22.3832 5.80662 22.4913 4.96172 21.7798C4.11683 21.0683 4.00868 19.8066 4.72017 18.9617ZM12.6021 17.3621C12.1498 17.9334 11.5336 18.2944 10.8755 18.4342L15.57 21.8648C16.4618 22.5165 17.7131 22.3218 18.3648 21.43C19.0165 20.5382 18.8218 19.2869 17.93 18.6352L13.9163 15.7021L12.6021 17.3621Z" fill="#FFFFFF"></path>
    <path fill-rule="evenodd" clip-rule="evenodd" d="M7 6C7 8 10 10 10 10C10 10 13 8 13 6C13 4 11.5 3 10 3C8.5 3 7 4 7 6ZM11 6C11 6.55228 10.5523 7 10 7C9.44772 7 9 6.55228 9 6C9 5.44772 9.44772 5 10 5C10.5523 5 11 5.44772 11 6Z" fill="#FFFFFF"></path>
</svg>