<svg stroke-width="0" fill="green" height="24" stroke="green" stroke-linecap="round" viewBox="0 0 24 24" width="24" xmlns="http://www.w3.org/2000/svg" xmlns:xlink="http://www.w3.org/1999/xlink">
    <path d="M19,17 L15.9998075,17 C15.4476291,17 15,16.5561352 15,16 C15,15.4477153 15.4437166,15 15.9998075,15 L19,15 L19,9 L3,9 L3,10 L6.00019251,10 C6.55237094,10 7,10.4438648 7,11 C7,11.5522847 6.55628335,12 6.00019251,12 L3,12 L3,18 L19,18 L19,17 Z M22,16 L22,6 L5,6 C4.44771525,6 4,5.55228475 4,5 C4,4.44771525 4.44771525,4 5,4 L23,4 C23.5522847,4 24,4.44771525 24,5 L24,16 C24,16.5522847 23.5522847,17 23,17 C22.4477153,17 22,16.5522847 22,16 Z M2,7 L20,7 C20.5522847,7 21,7.44771525 21,8 L21,19 C21,19.5522847 20.5522847,20 20,20 L2,20 C1.44771525,20 1,19.5522847 1,19 L1,8 C1,7.44771525 1.44771525,7 2,7 Z M11,18 C8.75370871,18 7,15.9540065 7,13.5 C7,11.0459935 8.75370871,9 11,9 C13.2462913,9 15,11.0459935 15,13.5 C15,15.9540065 13.2462913,18 11,18 Z M11,16 C12.0674172,16 13,14.9119867 13,13.5 C13,12.0880133 12.0674172,11 11,11 C9.93258279,11 9,12.0880133 9,13.5 C9,14.9119867 9.93258279,16 11,16 Z"></path>
</svg>