<svg stroke-width="0" fill="red" width="24" height="24" stroke="currentColor" stroke-linecap="round" viewBox="0 0 24 24" xmlns="http://www.w3.org/2000/svg" xmlns:xlink="http://www.w3.org/1999/xlink">
    <g fill="none" fill-rule="evenodd">
        <rect width="24" height="24"></rect>
        <path fill="red" fill-rule="nonzero" d="M13,11 L13,9 C13,8.44771525 12.5522847,8 12,8 C11.4477153,8 11,8.44771525 11,9 L11,11 L9,11 C8.44771525,11 8,11.4477153 8,12 C8,12.5522847 8.44771525,13 9,13 L11,13 L11,15 C11,15.5522847 11.4477153,16 12,16 C12.5522847,16 13,15.5522847 13,15 L13,13 L15,13 C15.5522847,13 16,12.5522847 16,12 C16,11.4477153 15.5522847,11 15,11 L13,11 Z M21.9435839,5.12278303 C23.9688075,8.9855674 22.9909699,13.1386414 19.9399548,16.8214391 C17.541826,19.7161553 14.0050167,22 12.0015344,22 C9.99806983,22 6.4601032,19.7161587 4.06097526,16.8216198 C1.00846273,13.1387748 0.0296309956,8.98566902 2.09414799,5.05460256 C4.35156671,1.46655367 7.80907024,1.06585546 12.0013396,3.7224133 C16.1908262,1.06594014 19.6486432,1.46953356 21.9435839,5.12278303 Z"></path>
    </g>
</svg>