<svg stroke-width="0" width="24" height="16" viewBox="0 0 16 16" fill="white" stroke="currentColor" stroke-linecap="round" xmlns="http://www.w3.org/2000/svg" xmlns:xlink="http://www.w3.org/1999/xlink">
    <g fill="none">
        <rect width="16" height="16"></rect>
        <path fill="#8B4513" d="M3.90835668 7.82478989C2.96720379 7.29655452 2 5.65391195 2 4 2 1.99169182 2.87055743-1.37882471e-17 4.5-3.33066907e-16 6.12944257-3.33066907e-16 7 1.99169182 7 4 7 5.65391195 6.03279621 7.29655452 5.09164332 7.82478989L5.83435271 14.5091744C5.91623523 15.2461171 5.38520407 15.909906 4.64826141 15.9917885 4.59903026 15.9972586 4.54953411 16 4.5 16 3.75852227 16 3.15743581 15.3989135 3.15743581 14.6574358 3.15743581 14.6079017 3.16017716 14.5584055 3.16564729 14.5091744L3.90835668 7.82478989zM11 7L12 7 12.8343527 14.5091744C12.9162352 15.2461171 12.3852041 15.909906 11.6482614 15.9917885 11.5990303 15.9972586 11.5495341 16 11.5 16L11.5 16C10.7585223 16 10.1574358 15.3989135 10.1574358 14.6574358 10.1574358 14.6079017 10.1601772 14.5584055 10.1656473 14.5091744L11 7z"></path>
        <path stroke="#8B4513" stroke-linecap="round" stroke-width="1.5" d="M9 1L9 5.66666667C9 6.40304633 9.59695367 7 10.3333333 7L12.6666667 7C13.4030463 7 14 6.40304633 14 5.66666667L14 1M11.5 1L11.5 7"></path>
    </g>
</svg>