<svg xmlns="http://www.w3.org/2000/svg" width="24" height="24" viewBox="0 0 24 24" data-id="IcPaymentPayLater">
    <g fill="none" fill-rule="evenodd">
        <rect width="24" height="24"></rect>
        <path stroke="#0194F3" stroke-linecap="round" stroke-linejoin="round" stroke-width="2" d="M18.5,10 L20.7180574,10 C21.1638168,10 21.3254599,10.0464128 21.4884229,10.1335664 C21.6513858,10.2207199 21.7792801,10.3486142 21.8664336,10.5115771 C21.9535872,10.6745401 22,10.8361832 22,11.2819426 L22,13.7180574 C22,14.1638168 21.9535872,14.3254599 21.8664336,14.4884229 C21.7792801,14.6513858 21.6513858,14.7792801 21.4884229,14.8664336 C21.3254599,14.9535872 21.1638168,15 20.7180574,15 L18.5,15 C17.1192881,15 16,13.8807119 16,12.5 L16,12.5 C16,11.1192881 17.1192881,10 18.5,10 Z"></path>
        <path stroke="#0194F3" stroke-linecap="round" stroke-linejoin="round" stroke-width="2" d="M17,19 L20,19 C21.1045695,19 22,18.1045695 22,17 L22,7 C22,6.44771525 21.5522847,6 21,6 L7,6 M21,6 L21,4 C21,3.44771525 20.5522847,3 20,3 L6,3 C4.8954305,3 4,3.8954305 4,5 L4,7"></path>
        <path stroke="#0194F3" stroke-linecap="round" stroke-linejoin="round" stroke-width="2" d="M3,11 L13,11 C13.5522847,11 14,11.4477153 14,12 L14,20 C14,20.5522847 13.5522847,21 13,21 L3,21 C2.44771525,21 2,20.5522847 2,20 L2,12 C2,11.4477153 2.44771525,11 3,11 Z M7.75,17.75 L8.25,17.75 L8.25,18.25 L7.75,18.25 L7.75,17.75 Z M4.75,17.75 L5.25,17.75 L5.25,18.25 L4.75,18.25 L4.75,17.75 Z M10.75,14.75 L11.25,14.75 L11.25,15.25 L10.75,15.25 L10.75,14.75 Z M10.75,17.75 L11.25,17.75 L11.25,18.25 L10.75,18.25 L10.75,17.75 Z M7.75,14.75 L8.25,14.75 L8.25,15.25 L7.75,15.25 L7.75,14.75 Z M4.75,14.75 L5.25,14.75 L5.25,15.25 L4.75,15.25 L4.75,14.75 Z M5,10 L5,12 M11,10 L11,12"></path>
    </g>
</svg>