<svg width="24" height="24" viewBox="0 0 24 24" fill="none" xmlns="http://www.w3.org/2000/svg" data-id="IcUserBookingFill">
    <path fill-rule="evenodd" clip-rule="evenodd" d="M6 2C4.34315 2 3 3.34315 3 5V19C3 20.6569 4.34315 22 6 22H18C19.6569 22 21 20.6569 21 19V5C21 3.34315 19.6569 2 18 2H6ZM6 4C5.44772 4 5 4.44772 5 5C5 5.55228 5.44772 6 6 6H8.75C9.16421 6 9.5 6.33579 9.5 6.75C9.5 7.16421 9.83579 7.5 10.25 7.5C10.6642 7.5 11 7.16421 11 6.75C11 6.33579 11.3358 6 11.75 6H18C18.5523 6 19 5.55228 19 5C19 4.44772 18.5523 4 18 4H6ZM7.5 10C6.94772 10 6.5 10.4477 6.5 11V12C6.5 12.5523 6.94772 13 7.5 13H8.5C9.05228 13 9.5 12.5523 9.5 12V11C9.5 10.4477 9.05228 10 8.5 10H7.5ZM12.5 13C11.6716 13 11 12.3284 11 11.5C11 10.6716 11.6716 10 12.5 10H16C16.8284 10 17.5 10.6716 17.5 11.5C17.5 12.3284 16.8284 13 16 13H12.5ZM12.5 15C11.6716 15 11 15.6716 11 16.5C11 17.3284 11.6716 18 12.5 18H16C16.8284 18 17.5 17.3284 17.5 16.5C17.5 15.6716 16.8284 15 16 15H12.5ZM7.5 18C6.94772 18 6.5 17.5523 6.5 17V16C6.5 15.4477 6.94772 15 7.5 15H8.5C9.05228 15 9.5 15.4477 9.5 16V17C9.5 17.5523 9.05228 18 8.5 18H7.5Z" fill="#0194f3"></path>
</svg>