<svg width="24" height="24" viewBox="0 0 16 16" fill="none" xmlns="http://www.w3.org/2000/svg" data-id="IcProductDuotonePointsFill16">
    <path fill-rule="evenodd" clip-rule="evenodd" d="M7 13C10.3137 13 13 10.3137 13 7C13 3.68629 10.3137 1 7 1C3.68629 1 1 3.68629 1 7C1 10.3137 3.68629 13 7 13ZM5.75 5.5C5.75 5.36193 5.86193 5.25 6 5.25H8C8.13807 5.25 8.25 5.36193 8.25 5.5V7.5C8.25 7.63807 8.13807 7.75 8 7.75H7.5C7.08579 7.75 6.75 8.08579 6.75 8.5C6.75 8.91421 7.08579 9.25 7.5 9.25H8C8.9665 9.25 9.75 8.4665 9.75 7.5V5.5C9.75 4.5335 8.9665 3.75 8 3.75H6C5.0335 3.75 4.25 4.5335 4.25 5.5V10C4.25 10.4142 4.58579 10.75 5 10.75C5.41421 10.75 5.75 10.4142 5.75 10V5.5Z" fill="#0194f3"></path>
    <path fill-rule="evenodd" clip-rule="evenodd" d="M7.49996 13.9999C11.0898 13.9999 14 11.0898 14 7.49993C14 6.63807 13.8322 5.81539 13.5276 5.06274C14.4447 6.11645 15 7.49335 15 8.99993C15 12.3136 12.3137 14.9999 8.99995 14.9999C7.49336 14.9999 6.11645 14.4446 5.06274 13.5276C5.81539 13.8322 6.63809 13.9999 7.49996 13.9999Z" fill="#0194F3"></path>
</svg>