<svg stroke-width="0" fill="#00ABF0" width="24" height="24" stroke="currentColor" stroke-linecap="round" viewBox="0 0 24 24" xmlns="http://www.w3.org/2000/svg" xmlns:xlink="http://www.w3.org/1999/xlink">
    <g>
        <path d="M3,14.2396252 C3,12.9995596 3.89438231,12 5,12 C6.10108537,12 7,13.0071142 7,14.2396252 L7,18.7603748 C7,20.0004404 6.10561769,21 5,21 C3.89891463,21 3,19.9928858 3,18.7603748 L3,14.2396252 Z M10,9.74482226 C10,8.50305644 10.8933459,7.5 12,7.5 C13.101638,7.5 14,8.51299366 14,9.74482226 L14,18.7551777 C14,19.9969436 13.1066541,21 12,21 C10.898362,21 10,19.9870063 10,18.7551777 L10,9.74482226 Z M17,5.25770116 C17,4.01167311 17.8907755,3 19,3 C20.1062591,3 21,4.01176397 21,5.25770116 L21,18.7422988 C21,19.9883269 20.1092245,21 19,21 C17.8937409,21 17,19.988236 17,18.7422988 L17,5.25770116 Z"></path>
    </g>
</svg>