<svg width="24" height="24" viewBox="0 0 24 24" fill="none" xmlns="http://www.w3.org/2000/svg" data-id="IcProductDuotoneTrainFill">
    <path fill-rule="evenodd" clip-rule="evenodd" d="M7.00003 17.0001L2.39894 20.7646C1.91765 21.1584 1.88158 21.8816 2.3213 22.3213C2.7057 22.7057 3.3198 22.7336 3.73743 22.3856L9.00003 18.0001L7.00003 17.0001Z" fill="#FFFFFF"></path>
    <path d="M4.00003 20.0001H20V22.0001H4.00003V20.0001Z" fill="#FFFFFF"></path>
    <path fill-rule="evenodd" clip-rule="evenodd" d="M15 18.0001L17 17.0001L21.6011 20.7646C22.0824 21.1584 22.1185 21.8816 21.6788 22.3213C21.2944 22.7057 20.6803 22.7336 20.2626 22.3856L15 18.0001Z" fill="#FFFFFF"></path>
    <path fill-rule="evenodd" clip-rule="evenodd" d="M4.00005 8.00013V14.0001L2.74956 15.8758C2.37681 16.4349 2.65061 17.1952 3.29426 17.3883L12 20.0001L20.7058 17.3883C21.3495 17.1952 21.6233 16.4349 21.2505 15.8758L20 14.0001V8C20 4.68633 17.3138 2.00006 14.0001 2.00006H10.0002C6.68642 2.00005 4.00005 4.68637 4.00005 8.00013ZM10 4C9.44773 4 9.00002 4.44771 9.00002 5C9.00002 5.55228 9.44773 6 10 6H14C14.5523 6 15 5.55228 15 5C15 4.44771 14.5523 4 14 4H10ZM5.00002 15C5.00002 14.4477 5.44773 14 6.00002 14H7.00002C7.5523 14 8.00002 14.4477 8.00002 15C8.00002 15.5523 7.5523 16 7.00002 16H6.00002C5.44773 16 5.00002 15.5523 5.00002 15ZM17 14C16.4477 14 16 14.4477 16 15C16 15.5523 16.4477 16 17 16H18C18.5523 16 19 15.5523 19 15C19 14.4477 18.5523 14 18 14H17ZM6.00002 9.2198C6.00002 8.58876 6.57734 8.11546 7.19614 8.23922L10.1961 8.83922C10.6636 8.93271 11 9.34312 11 9.8198V11.7802C11 12.4112 10.4227 12.8845 9.8039 12.7608L6.8039 12.1608C6.33648 12.0673 6.00002 11.6569 6.00002 11.1802V9.2198ZM13 9.8198C13 9.34312 13.3365 8.93271 13.8039 8.83922L16.8039 8.23922C17.4227 8.11546 18 8.58876 18 9.2198V11.1802C18 11.6569 17.6636 12.0673 17.1961 12.1608L14.1961 12.7608C13.5773 12.8845 13 12.4112 13 11.7802V9.8198Z" fill="#FFFFFF"></path>
</svg>