<svg stroke-width="0" fill="orange" width="24" height="24" stroke="currentColor" stroke-linecap="round" viewBox="0 0 24 24" xmlns="http://www.w3.org/2000/svg" xmlns:xlink="http://www.w3.org/1999/xlink">
    <g fill="none" fill-rule="evenodd">
        <rect width="24" height="24"></rect>
        <path fill="orange" fill-rule="nonzero" d="M14,3 L14,7.19298396 C13.3998354,6.45131168 12.4872587,6 11.5,6 C10.1192881,6 9,7.11928813 9,8.5 C9,9.48725872 9.45131168,10.3998354 10.192984,11 L0,11 L8.63200256e-17,6.2048565 C-5.01544207e-17,5.09045808 0.116032014,4.68635028 0.33391588,4.27894287 C0.551799746,3.87153546 0.871535463,3.55179975 1.27894287,3.33391588 C1.68635028,3.11603201 2.09045808,3 3.2048565,3 L14,3 Z M16,3 L20.7951435,3 C21.9095419,3 22.3136497,3.11603201 22.7210571,3.33391588 C23.1284645,3.55179975 23.4482003,3.87153546 23.6660841,4.27894287 C23.883968,4.68635028 24,5.09045808 24,6.2048565 L24,11 L19.807016,11 C20.5486883,10.3998354 21,9.48725872 21,8.5 C21,7.11928813 19.8807119,6 18.5,6 C17.5127413,6 16.6001646,6.45131168 16,7.19298396 L16,3 Z M24,13 L24,16.7951435 C24,17.9095419 23.883968,18.3136497 23.6660841,18.7210571 C23.4482003,19.1284645 23.1284645,19.4482003 22.7210571,19.6660841 C22.3136497,19.883968 21.9095419,20 20.7951435,20 L16,20 L16,13.4139101 C16.9091178,13.8294099 17.654375,14.544818 18.1055728,15.4472136 C18.3525621,15.9411921 18.9532351,16.1414164 19.4472136,15.8944272 C19.9411921,15.6474379 20.1414164,15.0467649 19.8944272,14.5527864 C19.6073137,13.9785595 19.2383481,13.4563809 18.8033834,13 L24,13 Z M14,20 L3.2048565,20 C2.09045808,20 1.68635028,19.883968 1.27894287,19.6660841 C0.871535463,19.4482003 0.551799746,19.1284645 0.33391588,18.7210571 C0.116032014,18.3136497 5.01544207e-17,17.9095419 -8.63200256e-17,16.7951435 L-2.44526024e-17,13 L11.1966166,13 C10.7616519,13.4563809 10.3926863,13.9785595 10.1055728,14.5527864 C9.85858356,15.0467649 10.0588079,15.6474379 10.5527864,15.8944272 C11.0467649,16.1414164 11.6474379,15.9411921 11.8944272,15.4472136 C12.345625,14.544818 13.0908822,13.8294099 14,13.4139101 L14,20 Z M12.6286093,8.76410571 L13.2049451,10.2049451 L11.7641057,9.62860932 C11.3026122,9.44401191 11,8.99704374 11,8.5 C11,8.22385763 11.2238576,8 11.5,8 C11.9970437,8 12.4440119,8.30261218 12.6286093,8.76410571 Z M18.2358943,9.62860932 L16.7950549,10.2049451 L17.3713907,8.76410571 C17.5559881,8.30261218 18.0029563,8 18.5,8 C18.7761424,8 19,8.22385763 19,8.5 C19,8.99704374 18.6973878,9.44401191 18.2358943,9.62860932 Z"></path>
    </g>
</svg>